# xmcd
#
# Track frame offsets: 
#        150
#        10500
#        28371
#        40811
#        66023
#        84232
#        115582
#
# Disc length: 1747 seconds
#
# Revision: 0
# Processed by: cddbd v1.4PL0 Copyright (c) Steve Scherf et al.
# Submitted via: ExactAudioCopy v0.90b4
#
DISCID=4806d107
DTITLE=ricaine - mainlanders
DYEAR=1997
DGENRE=Darkwave
TTITLE0=mainlanders
TTITLE1=judy's fence
TTITLE2=touch me, i'm famous
TTITLE3=run, run, run
TTITLE4=308
TTITLE5=eyre overload
TTITLE6=ballad of the arab
EXTD=
EXTT0=
EXTT1=
EXTT2=
EXTT3=
EXTT4=
EXTT5=
EXTT6=
PLAYORDER=
